<svg width="311" height="154" viewBox="0 0 311 154" fill="none" xmlns="http://www.w3.org/2000/svg">
<rect y="14" width="308" height="52" fill="black"/>
<path d="M38.016 24.952H24.896V63H14.08V24.952H0.96V16.376H38.016V24.952ZM66.8075 29.816V63H60.6635C59.4262 63 58.6155 62.4453 58.2315 61.336L57.6555 59.416C57.0155 60.0347 56.3542 60.6 55.6715 61.112C54.9888 61.6027 54.2528 62.0293 53.4635 62.392C52.6955 62.7333 51.8528 63 50.9355 63.192C50.0395 63.4053 49.0582 63.512 47.9915 63.512C46.1782 63.512 44.5675 63.2027 43.1595 62.584C41.7728 61.944 40.5995 61.0587 39.6395 59.928C38.6795 58.7973 37.9542 57.464 37.4635 55.928C36.9728 54.392 36.7275 52.7067 36.7275 50.872V29.816H46.6475V50.872C46.6475 52.5147 47.0208 53.784 47.7675 54.68C48.5142 55.576 49.6128 56.024 51.0635 56.024C52.1515 56.024 53.1648 55.8 54.1035 55.352C55.0635 54.8827 55.9915 54.2533 56.8875 53.464V29.816H66.8075ZM82.6995 33.4C83.3395 32.8027 84.0008 32.248 84.6835 31.736C85.3662 31.224 86.0915 30.7973 86.8595 30.456C87.6488 30.0933 88.4915 29.816 89.3875 29.624C90.3048 29.4107 91.2968 29.304 92.3635 29.304C94.1768 29.304 95.7768 29.624 97.1635 30.264C98.5715 30.8827 99.7555 31.7573 100.716 32.888C101.676 33.9973 102.401 35.3307 102.892 36.888C103.382 38.424 103.628 40.0987 103.628 41.912V63H93.7075V41.912C93.7075 40.2907 93.3342 39.032 92.5875 38.136C91.8408 37.2187 90.7422 36.76 89.2915 36.76C88.2035 36.76 87.1795 36.9947 86.2195 37.464C85.2808 37.912 84.3635 38.5307 83.4675 39.32V63H73.5475V29.816H79.6915C80.9288 29.816 81.7395 30.3707 82.1235 31.48L82.6995 33.4ZM130.688 42.424C130.688 41.6347 130.581 40.8667 130.368 40.12C130.176 39.3733 129.845 38.712 129.376 38.136C128.928 37.5387 128.33 37.0587 127.584 36.696C126.837 36.3333 125.93 36.152 124.864 36.152C122.986 36.152 121.514 36.696 120.448 37.784C119.381 38.8507 118.677 40.3973 118.336 42.424H130.688ZM118.208 48.184C118.528 50.9573 119.37 52.9733 120.736 54.232C122.101 55.4693 123.861 56.088 126.016 56.088C127.168 56.088 128.16 55.9493 128.992 55.672C129.824 55.3947 130.56 55.0853 131.2 54.744C131.861 54.4027 132.458 54.0933 132.992 53.816C133.546 53.5387 134.122 53.4 134.72 53.4C135.509 53.4 136.106 53.688 136.512 54.264L139.392 57.816C138.368 58.9893 137.258 59.9493 136.064 60.696C134.89 61.4213 133.674 61.9973 132.416 62.424C131.178 62.8293 129.93 63.1067 128.672 63.256C127.434 63.4267 126.25 63.512 125.12 63.512C122.794 63.512 120.608 63.1387 118.56 62.392C116.533 61.624 114.752 60.4933 113.216 59C111.701 57.5067 110.496 55.6507 109.6 53.432C108.725 51.2133 108.288 48.632 108.288 45.688C108.288 43.4693 108.661 41.368 109.408 39.384C110.176 37.4 111.264 35.6613 112.672 34.168C114.101 32.6747 115.818 31.4907 117.824 30.616C119.85 29.7413 122.133 29.304 124.672 29.304C126.869 29.304 128.874 29.6453 130.688 30.328C132.522 31.0107 134.09 32.0027 135.392 33.304C136.714 34.6053 137.738 36.2053 138.464 38.104C139.21 39.9813 139.583 42.1147 139.583 44.504C139.583 45.2507 139.552 45.8587 139.488 46.328C139.424 46.7973 139.306 47.1707 139.136 47.448C138.965 47.7253 138.73 47.9173 138.432 48.024C138.154 48.1307 137.792 48.184 137.344 48.184H118.208ZM186.272 25.848C185.952 26.36 185.611 26.744 185.248 27C184.907 27.256 184.459 27.384 183.904 27.384C183.413 27.384 182.88 27.2347 182.304 26.936C181.749 26.616 181.109 26.264 180.384 25.88C179.68 25.496 178.869 25.1547 177.952 24.856C177.035 24.536 175.989 24.376 174.816 24.376C172.789 24.376 171.275 24.8133 170.272 25.688C169.291 26.5413 168.8 27.704 168.8 29.176C168.8 30.1147 169.099 30.8933 169.696 31.512C170.293 32.1307 171.072 32.664 172.032 33.112C173.013 33.56 174.123 33.976 175.36 34.36C176.619 34.7227 177.899 35.1387 179.2 35.608C180.501 36.056 181.771 36.5893 183.008 37.208C184.267 37.8267 185.376 38.616 186.336 39.576C187.317 40.536 188.107 41.7093 188.704 43.096C189.301 44.4613 189.6 46.1147 189.6 48.056C189.6 50.2107 189.227 52.2267 188.48 54.104C187.733 55.9813 186.645 57.624 185.216 59.032C183.808 60.4187 182.059 61.5173 179.968 62.328C177.899 63.1173 175.541 63.512 172.896 63.512C171.445 63.512 169.963 63.3627 168.448 63.064C166.955 62.7653 165.504 62.3493 164.096 61.816C162.688 61.2613 161.365 60.6107 160.128 59.864C158.891 59.1173 157.813 58.2853 156.896 57.368L160.096 52.312C160.352 51.9493 160.683 51.6507 161.088 51.416C161.515 51.16 161.973 51.032 162.464 51.032C163.104 51.032 163.744 51.2347 164.384 51.64C165.045 52.0453 165.781 52.4933 166.592 52.984C167.424 53.4747 168.373 53.9227 169.44 54.328C170.507 54.7333 171.765 54.936 173.216 54.936C175.179 54.936 176.704 54.5093 177.792 53.656C178.88 52.7813 179.424 51.4053 179.424 49.528C179.424 48.44 179.125 47.5547 178.528 46.872C177.931 46.1893 177.141 45.624 176.16 45.176C175.2 44.728 174.101 44.3333 172.864 43.992C171.627 43.6507 170.357 43.2773 169.056 42.872C167.755 42.4453 166.485 41.9333 165.248 41.336C164.011 40.7173 162.901 39.9173 161.92 38.936C160.96 37.9333 160.181 36.696 159.584 35.224C158.987 33.7307 158.688 31.896 158.688 29.72C158.688 27.9707 159.04 26.264 159.744 24.6C160.448 22.936 161.483 21.4533 162.848 20.152C164.213 18.8507 165.888 17.816 167.872 17.048C169.856 16.2587 172.128 15.864 174.688 15.864C176.117 15.864 177.504 15.9813 178.848 16.216C180.213 16.4293 181.504 16.76 182.72 17.208C183.936 17.6347 185.067 18.1573 186.112 18.776C187.179 19.3733 188.128 20.056 188.96 20.824L186.272 25.848ZM211.48 49.496C209.496 49.5813 207.864 49.752 206.584 50.008C205.304 50.264 204.291 50.584 203.544 50.968C202.797 51.352 202.275 51.7893 201.976 52.28C201.699 52.7707 201.56 53.304 201.56 53.88C201.56 55.0107 201.869 55.8107 202.488 56.28C203.107 56.728 204.013 56.952 205.208 56.952C206.488 56.952 207.608 56.728 208.568 56.28C209.528 55.832 210.499 55.1067 211.48 54.104V49.496ZM193.624 34.424C195.629 32.6533 197.848 31.3413 200.28 30.488C202.733 29.6133 205.357 29.176 208.152 29.176C210.157 29.176 211.96 29.5067 213.56 30.168C215.181 30.808 216.547 31.7147 217.656 32.888C218.787 34.04 219.651 35.416 220.248 37.016C220.845 38.616 221.144 40.3653 221.144 42.264V63H216.6C215.661 63 214.947 62.872 214.456 62.616C213.987 62.36 213.592 61.8267 213.272 61.016L212.568 59.192C211.736 59.896 210.936 60.5147 210.168 61.048C209.4 61.5813 208.6 62.04 207.768 62.424C206.957 62.7867 206.083 63.0533 205.144 63.224C204.227 63.416 203.203 63.512 202.072 63.512C200.557 63.512 199.181 63.32 197.944 62.936C196.707 62.5307 195.651 61.944 194.776 61.176C193.923 60.408 193.261 59.4587 192.792 58.328C192.323 57.176 192.088 55.8533 192.088 54.36C192.088 53.1653 192.387 51.96 192.984 50.744C193.581 49.5067 194.616 48.3867 196.088 47.384C197.56 46.36 199.544 45.5067 202.04 44.824C204.536 44.1413 207.683 43.7573 211.48 43.672V42.264C211.48 40.3227 211.075 38.9253 210.264 38.072C209.475 37.1973 208.344 36.76 206.872 36.76C205.699 36.76 204.739 36.888 203.992 37.144C203.245 37.4 202.573 37.688 201.976 38.008C201.4 38.328 200.835 38.616 200.28 38.872C199.725 39.128 199.064 39.256 198.296 39.256C197.613 39.256 197.037 39.0853 196.568 38.744C196.099 38.4027 195.715 37.9973 195.416 37.528L193.624 34.424ZM237.405 15.096V63H227.485V15.096H237.405ZM261.23 49.496C259.246 49.5813 257.614 49.752 256.334 50.008C255.054 50.264 254.041 50.584 253.294 50.968C252.547 51.352 252.025 51.7893 251.726 52.28C251.449 52.7707 251.31 53.304 251.31 53.88C251.31 55.0107 251.619 55.8107 252.238 56.28C252.857 56.728 253.763 56.952 254.958 56.952C256.238 56.952 257.358 56.728 258.318 56.28C259.278 55.832 260.249 55.1067 261.23 54.104V49.496ZM243.374 34.424C245.379 32.6533 247.598 31.3413 250.03 30.488C252.483 29.6133 255.107 29.176 257.902 29.176C259.907 29.176 261.71 29.5067 263.31 30.168C264.931 30.808 266.297 31.7147 267.406 32.888C268.537 34.04 269.401 35.416 269.998 37.016C270.595 38.616 270.894 40.3653 270.894 42.264V63H266.35C265.411 63 264.697 62.872 264.206 62.616C263.737 62.36 263.342 61.8267 263.022 61.016L262.318 59.192C261.486 59.896 260.686 60.5147 259.918 61.048C259.15 61.5813 258.35 62.04 257.518 62.424C256.707 62.7867 255.833 63.0533 254.894 63.224C253.977 63.416 252.953 63.512 251.822 63.512C250.307 63.512 248.931 63.32 247.694 62.936C246.457 62.5307 245.401 61.944 244.526 61.176C243.673 60.408 243.011 59.4587 242.542 58.328C242.073 57.176 241.838 55.8533 241.838 54.36C241.838 53.1653 242.137 51.96 242.734 50.744C243.331 49.5067 244.366 48.3867 245.838 47.384C247.31 46.36 249.294 45.5067 251.79 44.824C254.286 44.1413 257.433 43.7573 261.23 43.672V42.264C261.23 40.3227 260.825 38.9253 260.014 38.072C259.225 37.1973 258.094 36.76 256.622 36.76C255.449 36.76 254.489 36.888 253.742 37.144C252.995 37.4 252.323 37.688 251.726 38.008C251.15 38.328 250.585 38.616 250.03 38.872C249.475 39.128 248.814 39.256 248.046 39.256C247.363 39.256 246.787 39.0853 246.318 38.744C245.849 38.4027 245.465 37.9973 245.166 37.528L243.374 34.424ZM297.363 38.712C296.616 37.88 295.806 37.304 294.931 36.984C294.056 36.6427 293.139 36.472 292.179 36.472C291.262 36.472 290.419 36.6533 289.651 37.016C288.883 37.3787 288.211 37.9653 287.635 38.776C287.08 39.5653 286.643 40.6 286.323 41.88C286.003 43.16 285.843 44.7067 285.843 46.52C285.843 48.2693 285.971 49.7413 286.227 50.936C286.483 52.1307 286.835 53.1013 287.283 53.848C287.752 54.5733 288.307 55.096 288.947 55.416C289.587 55.736 290.302 55.896 291.091 55.896C291.816 55.896 292.467 55.832 293.043 55.704C293.64 55.5547 294.184 55.352 294.675 55.096C295.166 54.84 295.624 54.52 296.051 54.136C296.499 53.7307 296.936 53.272 297.363 52.76V38.712ZM307.283 15.096V63H301.139C299.902 63 299.091 62.4453 298.707 61.336L297.939 58.808C297.278 59.512 296.584 60.152 295.859 60.728C295.134 61.304 294.344 61.8053 293.491 62.232C292.659 62.6373 291.752 62.9467 290.771 63.16C289.811 63.3947 288.766 63.512 287.635 63.512C285.907 63.512 284.307 63.128 282.835 62.36C281.363 61.592 280.094 60.4827 279.027 59.032C277.96 57.5813 277.118 55.8107 276.499 53.72C275.902 51.608 275.603 49.208 275.603 46.52C275.603 44.0453 275.944 41.752 276.627 39.64C277.31 37.5067 278.27 35.672 279.507 34.136C280.766 32.5787 282.27 31.3627 284.019 30.488C285.768 29.6133 287.699 29.176 289.811 29.176C291.539 29.176 292.99 29.4213 294.163 29.912C295.336 30.4027 296.403 31.064 297.363 31.896V15.096H307.283Z" fill="#1ED760"/>
</svg>
