<svg width="308" height="49" viewBox="0 0 308 49" fill="none" xmlns="http://www.w3.org/2000/svg">
<path d="M38.016 9.952H24.896V48H14.08V9.952H0.96V1.376H38.016V9.952ZM66.8075 14.816V48H60.6635C59.4262 48 58.6155 47.4453 58.2315 46.336L57.6555 44.416C57.0155 45.0347 56.3542 45.6 55.6715 46.112C54.9888 46.6027 54.2528 47.0293 53.4635 47.392C52.6955 47.7333 51.8528 48 50.9355 48.192C50.0395 48.4053 49.0582 48.512 47.9915 48.512C46.1782 48.512 44.5675 48.2027 43.1595 47.584C41.7728 46.944 40.5995 46.0587 39.6395 44.928C38.6795 43.7973 37.9542 42.464 37.4635 40.928C36.9728 39.392 36.7275 37.7067 36.7275 35.872V14.816H46.6475V35.872C46.6475 37.5147 47.0208 38.784 47.7675 39.68C48.5142 40.576 49.6128 41.024 51.0635 41.024C52.1515 41.024 53.1648 40.8 54.1035 40.352C55.0635 39.8827 55.9915 39.2533 56.8875 38.464V14.816H66.8075ZM82.6995 18.4C83.3395 17.8027 84.0008 17.248 84.6835 16.736C85.3662 16.224 86.0915 15.7973 86.8595 15.456C87.6488 15.0933 88.4915 14.816 89.3875 14.624C90.3048 14.4107 91.2968 14.304 92.3635 14.304C94.1768 14.304 95.7768 14.624 97.1635 15.264C98.5715 15.8827 99.7555 16.7573 100.716 17.888C101.676 18.9973 102.401 20.3307 102.892 21.888C103.382 23.424 103.628 25.0987 103.628 26.912V48H93.7075V26.912C93.7075 25.2907 93.3342 24.032 92.5875 23.136C91.8408 22.2187 90.7422 21.76 89.2915 21.76C88.2035 21.76 87.1795 21.9947 86.2195 22.464C85.2808 22.912 84.3635 23.5307 83.4675 24.32V48H73.5475V14.816H79.6915C80.9288 14.816 81.7395 15.3707 82.1235 16.48L82.6995 18.4ZM130.688 27.424C130.688 26.6347 130.581 25.8667 130.368 25.12C130.176 24.3733 129.845 23.712 129.376 23.136C128.928 22.5387 128.33 22.0587 127.584 21.696C126.837 21.3333 125.93 21.152 124.864 21.152C122.986 21.152 121.514 21.696 120.448 22.784C119.381 23.8507 118.677 25.3973 118.336 27.424H130.688ZM118.208 33.184C118.528 35.9573 119.37 37.9733 120.736 39.232C122.101 40.4693 123.861 41.088 126.016 41.088C127.168 41.088 128.16 40.9493 128.992 40.672C129.824 40.3947 130.56 40.0853 131.2 39.744C131.861 39.4027 132.458 39.0933 132.992 38.816C133.546 38.5387 134.122 38.4 134.72 38.4C135.509 38.4 136.106 38.688 136.512 39.264L139.392 42.816C138.368 43.9893 137.258 44.9493 136.064 45.696C134.89 46.4213 133.674 46.9973 132.416 47.424C131.178 47.8293 129.93 48.1067 128.672 48.256C127.434 48.4267 126.25 48.512 125.12 48.512C122.794 48.512 120.608 48.1387 118.56 47.392C116.533 46.624 114.752 45.4933 113.216 44C111.701 42.5067 110.496 40.6507 109.6 38.432C108.725 36.2133 108.288 33.632 108.288 30.688C108.288 28.4693 108.661 26.368 109.408 24.384C110.176 22.4 111.264 20.6613 112.672 19.168C114.101 17.6747 115.818 16.4907 117.824 15.616C119.85 14.7413 122.133 14.304 124.672 14.304C126.869 14.304 128.874 14.6453 130.688 15.328C132.522 16.0107 134.09 17.0027 135.392 18.304C136.714 19.6053 137.738 21.2053 138.464 23.104C139.21 24.9813 139.583 27.1147 139.583 29.504C139.583 30.2507 139.552 30.8587 139.488 31.328C139.424 31.7973 139.306 32.1707 139.136 32.448C138.965 32.7253 138.73 32.9173 138.432 33.024C138.154 33.1307 137.792 33.184 137.344 33.184H118.208ZM186.272 10.848C185.952 11.36 185.611 11.744 185.248 12C184.907 12.256 184.459 12.384 183.904 12.384C183.413 12.384 182.88 12.2347 182.304 11.936C181.749 11.616 181.109 11.264 180.384 10.88C179.68 10.496 178.869 10.1547 177.952 9.856C177.035 9.536 175.989 9.376 174.816 9.376C172.789 9.376 171.275 9.81333 170.272 10.688C169.291 11.5413 168.8 12.704 168.8 14.176C168.8 15.1147 169.099 15.8933 169.696 16.512C170.293 17.1307 171.072 17.664 172.032 18.112C173.013 18.56 174.123 18.976 175.36 19.36C176.619 19.7227 177.899 20.1387 179.2 20.608C180.501 21.056 181.771 21.5893 183.008 22.208C184.267 22.8267 185.376 23.616 186.336 24.576C187.317 25.536 188.107 26.7093 188.704 28.096C189.301 29.4613 189.6 31.1147 189.6 33.056C189.6 35.2107 189.227 37.2267 188.48 39.104C187.733 40.9813 186.645 42.624 185.216 44.032C183.808 45.4187 182.059 46.5173 179.968 47.328C177.899 48.1173 175.541 48.512 172.896 48.512C171.445 48.512 169.963 48.3627 168.448 48.064C166.955 47.7653 165.504 47.3493 164.096 46.816C162.688 46.2613 161.365 45.6107 160.128 44.864C158.891 44.1173 157.813 43.2853 156.896 42.368L160.096 37.312C160.352 36.9493 160.683 36.6507 161.088 36.416C161.515 36.16 161.973 36.032 162.464 36.032C163.104 36.032 163.744 36.2347 164.384 36.64C165.045 37.0453 165.781 37.4933 166.592 37.984C167.424 38.4747 168.373 38.9227 169.44 39.328C170.507 39.7333 171.765 39.936 173.216 39.936C175.179 39.936 176.704 39.5093 177.792 38.656C178.88 37.7813 179.424 36.4053 179.424 34.528C179.424 33.44 179.125 32.5547 178.528 31.872C177.931 31.1893 177.141 30.624 176.16 30.176C175.2 29.728 174.101 29.3333 172.864 28.992C171.627 28.6507 170.357 28.2773 169.056 27.872C167.755 27.4453 166.485 26.9333 165.248 26.336C164.011 25.7173 162.901 24.9173 161.92 23.936C160.96 22.9333 160.181 21.696 159.584 20.224C158.987 18.7307 158.688 16.896 158.688 14.72C158.688 12.9707 159.04 11.264 159.744 9.6C160.448 7.936 161.483 6.45333 162.848 5.152C164.213 3.85066 165.888 2.816 167.872 2.048C169.856 1.25866 172.128 0.863998 174.688 0.863998C176.117 0.863998 177.504 0.981332 178.848 1.216C180.213 1.42933 181.504 1.76 182.72 2.208C183.936 2.63467 185.067 3.15733 186.112 3.776C187.179 4.37333 188.128 5.056 188.96 5.824L186.272 10.848ZM211.48 34.496C209.496 34.5813 207.864 34.752 206.584 35.008C205.304 35.264 204.291 35.584 203.544 35.968C202.797 36.352 202.275 36.7893 201.976 37.28C201.699 37.7707 201.56 38.304 201.56 38.88C201.56 40.0107 201.869 40.8107 202.488 41.28C203.107 41.728 204.013 41.952 205.208 41.952C206.488 41.952 207.608 41.728 208.568 41.28C209.528 40.832 210.499 40.1067 211.48 39.104V34.496ZM193.624 19.424C195.629 17.6533 197.848 16.3413 200.28 15.488C202.733 14.6133 205.357 14.176 208.152 14.176C210.157 14.176 211.96 14.5067 213.56 15.168C215.181 15.808 216.547 16.7147 217.656 17.888C218.787 19.04 219.651 20.416 220.248 22.016C220.845 23.616 221.144 25.3653 221.144 27.264V48H216.6C215.661 48 214.947 47.872 214.456 47.616C213.987 47.36 213.592 46.8267 213.272 46.016L212.568 44.192C211.736 44.896 210.936 45.5147 210.168 46.048C209.4 46.5813 208.6 47.04 207.768 47.424C206.957 47.7867 206.083 48.0533 205.144 48.224C204.227 48.416 203.203 48.512 202.072 48.512C200.557 48.512 199.181 48.32 197.944 47.936C196.707 47.5307 195.651 46.944 194.776 46.176C193.923 45.408 193.261 44.4587 192.792 43.328C192.323 42.176 192.088 40.8533 192.088 39.36C192.088 38.1653 192.387 36.96 192.984 35.744C193.581 34.5067 194.616 33.3867 196.088 32.384C197.56 31.36 199.544 30.5067 202.04 29.824C204.536 29.1413 207.683 28.7573 211.48 28.672V27.264C211.48 25.3227 211.075 23.9253 210.264 23.072C209.475 22.1973 208.344 21.76 206.872 21.76C205.699 21.76 204.739 21.888 203.992 22.144C203.245 22.4 202.573 22.688 201.976 23.008C201.4 23.328 200.835 23.616 200.28 23.872C199.725 24.128 199.064 24.256 198.296 24.256C197.613 24.256 197.037 24.0853 196.568 23.744C196.099 23.4027 195.715 22.9973 195.416 22.528L193.624 19.424ZM237.405 0.0959969V48H227.485V0.0959969H237.405ZM261.23 34.496C259.246 34.5813 257.614 34.752 256.334 35.008C255.054 35.264 254.041 35.584 253.294 35.968C252.547 36.352 252.025 36.7893 251.726 37.28C251.449 37.7707 251.31 38.304 251.31 38.88C251.31 40.0107 251.619 40.8107 252.238 41.28C252.857 41.728 253.763 41.952 254.958 41.952C256.238 41.952 257.358 41.728 258.318 41.28C259.278 40.832 260.249 40.1067 261.23 39.104V34.496ZM243.374 19.424C245.379 17.6533 247.598 16.3413 250.03 15.488C252.483 14.6133 255.107 14.176 257.902 14.176C259.907 14.176 261.71 14.5067 263.31 15.168C264.931 15.808 266.297 16.7147 267.406 17.888C268.537 19.04 269.401 20.416 269.998 22.016C270.595 23.616 270.894 25.3653 270.894 27.264V48H266.35C265.411 48 264.697 47.872 264.206 47.616C263.737 47.36 263.342 46.8267 263.022 46.016L262.318 44.192C261.486 44.896 260.686 45.5147 259.918 46.048C259.15 46.5813 258.35 47.04 257.518 47.424C256.707 47.7867 255.833 48.0533 254.894 48.224C253.977 48.416 252.953 48.512 251.822 48.512C250.307 48.512 248.931 48.32 247.694 47.936C246.457 47.5307 245.401 46.944 244.526 46.176C243.673 45.408 243.011 44.4587 242.542 43.328C242.073 42.176 241.838 40.8533 241.838 39.36C241.838 38.1653 242.137 36.96 242.734 35.744C243.331 34.5067 244.366 33.3867 245.838 32.384C247.31 31.36 249.294 30.5067 251.79 29.824C254.286 29.1413 257.433 28.7573 261.23 28.672V27.264C261.23 25.3227 260.825 23.9253 260.014 23.072C259.225 22.1973 258.094 21.76 256.622 21.76C255.449 21.76 254.489 21.888 253.742 22.144C252.995 22.4 252.323 22.688 251.726 23.008C251.15 23.328 250.585 23.616 250.03 23.872C249.475 24.128 248.814 24.256 248.046 24.256C247.363 24.256 246.787 24.0853 246.318 23.744C245.849 23.4027 245.465 22.9973 245.166 22.528L243.374 19.424ZM297.363 23.712C296.616 22.88 295.806 22.304 294.931 21.984C294.056 21.6427 293.139 21.472 292.179 21.472C291.262 21.472 290.419 21.6533 289.651 22.016C288.883 22.3787 288.211 22.9653 287.635 23.776C287.08 24.5653 286.643 25.6 286.323 26.88C286.003 28.16 285.843 29.7067 285.843 31.52C285.843 33.2693 285.971 34.7413 286.227 35.936C286.483 37.1307 286.835 38.1013 287.283 38.848C287.752 39.5733 288.307 40.096 288.947 40.416C289.587 40.736 290.302 40.896 291.091 40.896C291.816 40.896 292.467 40.832 293.043 40.704C293.64 40.5547 294.184 40.352 294.675 40.096C295.166 39.84 295.624 39.52 296.051 39.136C296.499 38.7307 296.936 38.272 297.363 37.76V23.712ZM307.283 0.0959969V48H301.139C299.902 48 299.091 47.4453 298.707 46.336L297.939 43.808C297.278 44.512 296.584 45.152 295.859 45.728C295.134 46.304 294.344 46.8053 293.491 47.232C292.659 47.6373 291.752 47.9467 290.771 48.16C289.811 48.3947 288.766 48.512 287.635 48.512C285.907 48.512 284.307 48.128 282.835 47.36C281.363 46.592 280.094 45.4827 279.027 44.032C277.96 42.5813 277.118 40.8107 276.499 38.72C275.902 36.608 275.603 34.208 275.603 31.52C275.603 29.0453 275.944 26.752 276.627 24.64C277.31 22.5067 278.27 20.672 279.507 19.136C280.766 17.5787 282.27 16.3627 284.019 15.488C285.768 14.6133 287.699 14.176 289.811 14.176C291.539 14.176 292.99 14.4213 294.163 14.912C295.336 15.4027 296.403 16.064 297.363 16.896V0.0959969H307.283Z" fill="#1ED760"/>
</svg>
